<svg width="30" height="30" viewBox="0 0 30 30" fill="none" xmlns="http://www.w3.org/2000/svg">
<g clip-path="url(#clip0_54_15)">
<path d="M13.5174 0.624731C13.7104 0.427131 13.941 0.270115 14.1956 0.162914C14.4502 0.0557122 14.7236 0.000488281 14.9999 0.000488281C15.2761 0.000488281 15.5495 0.0557122 15.8041 0.162914C16.0587 0.270115 16.2893 0.427131 16.4824 0.624731L19.6224 3.83973L24.1161 3.78598C24.3925 3.78263 24.6667 3.83459 24.9227 3.93881C25.1787 4.04303 25.4113 4.19741 25.6067 4.39285C25.8022 4.58829 25.9566 4.82086 26.0608 5.07685C26.165 5.33285 26.217 5.6071 26.2136 5.88348L26.1599 10.3772L29.3749 13.5172C30.2086 14.3297 30.2086 15.6697 29.3749 16.4822L26.1599 19.6222L26.2136 24.116C26.217 24.3924 26.165 24.6666 26.0608 24.9226C25.9566 25.1786 25.8022 25.4112 25.6067 25.6066C25.4113 25.8021 25.1787 25.9564 24.9227 26.0606C24.6667 26.1649 24.3925 26.2168 24.1161 26.2135L19.6224 26.1597L16.4824 29.3747C16.2893 29.5723 16.0587 29.7293 15.8041 29.8365C15.5495 29.9437 15.2761 29.999 14.9999 29.999C14.7236 29.999 14.4502 29.9437 14.1956 29.8365C13.941 29.7293 13.7104 29.5723 13.5174 29.3747L10.3774 26.1597L5.8836 26.2135C5.60722 26.2168 5.33297 26.1649 5.07697 26.0606C4.82098 25.9564 4.58841 25.8021 4.39297 25.6066C4.19753 25.4112 4.04315 25.1786 3.93893 24.9226C3.83471 24.6666 3.78275 24.3924 3.7861 24.116L3.83985 19.6222L0.624853 16.4822C0.427253 16.2892 0.270237 16.0586 0.163036 15.804C0.0558342 15.5494 0.000610352 15.276 0.000610352 14.9997C0.000610352 14.7235 0.0558342 14.45 0.163036 14.1954C0.270237 13.9409 0.427253 13.7103 0.624853 13.5172L3.83985 10.3772L3.7861 5.88348C3.78275 5.6071 3.83471 5.33285 3.93893 5.07685C4.04315 4.82086 4.19753 4.58829 4.39297 4.39285C4.58841 4.19741 4.82098 4.04303 5.07697 3.93881C5.33297 3.83459 5.60722 3.78263 5.8836 3.78598L10.3774 3.83973L13.5174 0.624731ZM21.7474 12.0247C21.9694 11.7879 22.0906 11.474 22.0854 11.1494C22.0801 10.8248 21.9488 10.515 21.7191 10.2855C21.4895 10.056 21.1796 9.92488 20.8549 9.91984C20.5303 9.9148 20.2165 10.0362 19.9799 10.2585L12.4661 17.771L10.0986 15.4047C9.86285 15.177 9.5471 15.051 9.21935 15.0539C8.89161 15.0567 8.57809 15.1882 8.34633 15.42C8.11457 15.6517 7.98311 15.9652 7.98026 16.293C7.97741 16.6207 8.10341 16.9365 8.3311 17.1722L12.4661 21.3072L21.7474 12.026V12.0247Z" fill="#47B5FF"/>
</g>
<defs>
<clipPath id="clip0_54_15">
<rect width="30" height="30" fill="white"/>
</clipPath>
</defs>
</svg>
