<svg width="34" height="30" viewBox="0 0 34 30" fill="none" xmlns="http://www.w3.org/2000/svg">
<path d="M4.41781 17.1803L16.0055 28.0658C16.4047 28.4407 16.6042 28.6282 16.8395 28.6743C16.9455 28.6952 17.0545 28.6952 17.1605 28.6743C17.3959 28.6282 17.5954 28.4407 17.9945 28.0658L29.5822 17.1803C32.8425 14.1177 33.2384 9.07767 30.4964 5.54345L29.9809 4.8789C26.7005 0.650966 20.116 1.36002 17.8112 6.18942C17.4855 6.8716 16.5145 6.8716 16.1889 6.18942C13.884 1.36002 7.29957 0.650966 4.01927 4.87892L3.50368 5.54345C0.761615 9.07767 1.15753 14.1177 4.41781 17.1803Z" stroke="#8A8F96" stroke-width="2.5"/>
</svg>
