<svg xmlns="http://www.w3.org/2000/svg" width="40" height="40" fill="none"><path stroke="#5F5D64" stroke-linecap="round" stroke-linejoin="round" stroke-width="1.5" d="M24.633 35.417h-9.266V25.5c0-.917.75-1.667 1.666-1.667h5.934c.916 0 1.666.75 1.666 1.667v9.917Z"/><path stroke="#5F5D64" stroke-linecap="round" stroke-linejoin="round" stroke-width="1.5" d="M35.417 18.983v11.184c0 2.9-2.234 5.25-5 5.25H9.583c-2.766 0-5-2.35-5-5.25V18.983c0-1.566.65-3.033 1.8-4.033L16.8 5.8a4.792 4.792 0 0 1 6.4 0l10.417 9.15c1.15 1 1.8 2.467 1.8 4.033Z"/></svg>