<svg width="40" height="40" viewBox="0 0 40 40" fill="none" xmlns="http://www.w3.org/2000/svg">
<path d="M1.70209 18.7779C1.70209 19.7991 2.52244 20.6194 3.54366 20.6194C4.58159 20.6194 5.40187 19.7991 5.40187 18.7779V17.673C5.40187 15.0111 7.22666 13.2534 9.97223 13.2534H22.6117V16.7522C22.6117 17.6562 23.1809 18.2254 24.1017 18.2254C24.5034 18.2254 24.9219 18.0748 25.24 17.8069L31.5682 12.5837C32.3216 11.981 32.3216 10.9766 31.5682 10.3404L25.24 5.08371C24.9219 4.83257 24.5034 4.66521 24.1017 4.66521C23.1809 4.66521 22.6117 5.25114 22.6117 6.15514V9.6205H10.3237C5.06702 9.6205 1.70209 12.6506 1.70209 17.4051V18.7779ZM17.3884 23.2645C17.3884 22.3605 16.8193 21.7913 15.8985 21.7913C15.4967 21.7913 15.0782 21.9419 14.7602 22.1931L8.43202 27.4163C7.67866 28.0357 7.67866 29.0234 8.43202 29.6596L14.7602 34.9163C15.0782 35.1841 15.4967 35.3348 15.8985 35.3348C16.8193 35.3348 17.3884 34.7656 17.3884 33.8616V30.3627H29.6764C34.9332 30.3627 38.2979 27.3159 38.2979 22.5781V21.2054C38.2979 20.1674 37.4778 19.3471 36.44 19.3471C35.4186 19.3471 34.5982 20.1674 34.5982 21.2054V22.3103C34.5982 24.9554 32.7734 26.7299 30.028 26.7299H17.3884V23.2645Z" fill="#8A8F96"/>
</svg>
