<svg width="40" height="40" viewBox="0 0 40 40" fill="none" xmlns="http://www.w3.org/2000/svg">
<path d="M7.41781 23.1803L19.0055 34.0658C19.4047 34.4407 19.6042 34.6282 19.8395 34.6743C19.9455 34.6952 20.0545 34.6952 20.1605 34.6743C20.3959 34.6282 20.5954 34.4407 20.9945 34.0658L32.5822 23.1803C35.8425 20.1177 36.2384 15.0777 33.4964 11.5434L32.9809 10.8789C29.7005 6.65097 23.116 7.36002 20.8112 12.1894C20.4855 12.8716 19.5145 12.8716 19.1889 12.1894C16.884 7.36002 10.2996 6.65097 7.01927 10.8789L6.50368 11.5434C3.76161 15.0777 4.15753 20.1177 7.41781 23.1803Z" stroke="#8A8F96" stroke-width="2.5"/>
</svg>
