<svg width="70" height="70" viewBox="0 0 70 70" fill="none" xmlns="http://www.w3.org/2000/svg">
<rect width="70" height="70" rx="35" fill="#47B5FF"/>
<path d="M25.875 50C22.7647 50 20.25 47.5589 20.25 44.5396V25.4604C20.25 22.4412 22.7647 20 25.875 20C28.9853 20 31.5 22.4412 31.5 25.4604V44.5396C31.4779 47.5589 28.9632 50 25.875 50Z" fill="white"/>
<path d="M44.125 50C41.0147 50 38.5 47.5589 38.5 44.5396V25.4604C38.5 22.4412 41.0147 20 44.125 20C47.2353 20 49.75 22.4412 49.75 25.4604V44.5396C49.7279 47.5589 47.2132 50 44.125 50Z" fill="white"/>
</svg>
