<svg width="40" height="40" viewBox="0 0 40 40" fill="none" xmlns="http://www.w3.org/2000/svg">
<g clip-path="url(#clip0_42_555)">
<g clip-path="url(#clip1_42_555)">
<path d="M1.66664 11.6666H5C6.48594 11.6666 7.91133 12.0549 9.16852 12.7825C9.96523 13.2435 10.9848 12.9715 11.4459 12.1747C11.907 11.378 11.6348 10.3585 10.8381 9.89739C9.07703 8.87825 7.07641 8.33325 5 8.33325H1.66664C0.746172 8.33333 0 9.0795 0 9.99997C0 10.9204 0.746172 11.6666 1.66664 11.6666Z" fill="#8A8F96"/>
<path d="M25 11.6666H28.3334V16.6666C28.3334 18.0641 29.9499 18.841 31.0412 17.9681L39.3745 11.3014C40.2085 10.6342 40.2085 9.36572 39.3745 8.69854L31.0412 2.03182C29.9499 1.15877 28.3334 1.93572 28.3334 3.3333V8.3333H25C18.5562 8.3333 13.3334 13.5562 13.3334 19.9999C13.3334 24.6028 9.60289 28.3333 5 28.3333H1.66664C0.746172 28.3333 0 29.0795 0 29.9999C0 30.9204 0.746172 31.6666 1.66664 31.6666H5C11.4438 31.6666 16.6666 26.4437 16.6666 19.9999C16.6666 15.3971 20.3971 11.6666 25 11.6666ZM31.6666 6.80096L35.6654 9.99994L31.6667 13.1989V6.80096H31.6666Z" fill="#8A8F96"/>
<path d="M39.3745 28.6985L31.0412 22.0318C29.9499 21.1588 28.3334 21.9357 28.3334 23.3333V28.3342H24.9998C23.3379 28.3342 21.7494 27.8463 20.3937 26.9458C19.6269 26.4365 18.5925 26.6453 18.0832 27.412C17.5739 28.1787 17.7827 29.2131 18.5494 29.7224C20.4471 30.983 22.6761 31.6674 24.9998 31.6674H28.3334V36.6666C28.3334 38.0641 29.9499 38.841 31.0412 37.9681L39.3745 31.3014C40.2085 30.6342 40.2085 29.3657 39.3745 28.6985ZM31.6666 33.1989V26.801L35.6654 29.9999L31.6666 33.1989Z" fill="#8A8F96"/>
</g>
</g>
<defs>
<clipPath id="clip0_42_555">
<rect width="40" height="40" fill="white"/>
</clipPath>
<clipPath id="clip1_42_555">
<rect width="40" height="40" fill="white"/>
</clipPath>
</defs>
</svg>
