<svg width="40" height="40" viewBox="0 0 40 40" fill="none" xmlns="http://www.w3.org/2000/svg">
<path d="M1.70209 18.7779C1.70209 19.799 2.52244 20.6194 3.54366 20.6194C4.58159 20.6194 5.40187 19.799 5.40187 18.7779V17.6729C5.40187 15.0111 7.22666 13.2533 9.97223 13.2533H22.6117V16.7522C22.6117 17.6562 23.1809 18.2254 24.1017 18.2254C24.5034 18.2254 24.9219 18.0747 25.24 17.8069L31.5682 12.5837C32.3216 11.9809 32.3216 10.9765 31.5682 10.3403L25.24 5.08366C24.9219 4.83252 24.5034 4.66516 24.1017 4.66516C23.1809 4.66516 22.6117 5.25109 22.6117 6.15509V9.62045H10.3237C5.06702 9.62045 1.70209 12.6506 1.70209 17.4051V18.7779ZM17.3884 23.2644C17.3884 22.3604 16.8193 21.7912 15.8985 21.7912C15.4967 21.7912 15.0782 21.9419 14.7602 22.193L8.43202 27.4162C7.67866 28.0357 7.67866 29.0234 8.43202 29.6595L14.7602 34.9162C15.0782 35.1841 15.4967 35.3347 15.8985 35.3347C16.8193 35.3347 17.3884 34.7656 17.3884 33.8615V30.3627H29.6764C34.9332 30.3627 38.2979 27.3158 38.2979 22.5781V21.2053C38.2979 20.1674 37.4778 19.3471 36.44 19.3471C35.4186 19.3471 34.5982 20.1674 34.5982 21.2053V22.3102C34.5982 24.9553 32.7734 26.7299 30.028 26.7299H17.3884V23.2644Z" fill="#8A8F96"/>
</svg>
