<svg width="40" height="40" viewBox="0 0 40 40" fill="none" xmlns="http://www.w3.org/2000/svg">
<path d="M36.4732 16.0073C37.5114 16.0073 38.0805 15.4381 38.0805 14.3666V6.58207C38.0805 5.37665 37.3105 4.57307 36.1385 4.57307C35.1508 4.57307 34.5817 4.89115 33.7948 5.49386L31.6518 7.15122C31.2667 7.45257 31.1161 7.78736 31.1161 8.15572C31.1161 8.69143 31.5179 9.14343 32.2042 9.14343C32.472 9.14343 32.7402 9.05972 32.9743 8.85879L34.6985 7.46929H34.8326V14.3666C34.8326 15.4381 35.4185 16.0073 36.4732 16.0073ZM1.70203 18.87C1.70203 19.8911 2.52238 20.7115 3.5436 20.7115C4.58153 20.7115 5.40181 19.8911 5.40181 18.87V17.7651C5.40181 15.1032 7.2266 13.3454 9.97217 13.3454H19.0123V16.8443C19.0123 17.7483 19.5982 18.3175 20.519 18.3175C20.9208 18.3175 21.3393 18.1669 21.6574 17.899L27.9855 12.6758C28.7389 12.0564 28.7222 11.0686 27.9855 10.4325L21.6574 5.17579C21.3393 4.92465 20.9208 4.75729 20.519 4.75729C19.5982 4.75729 19.0123 5.34322 19.0123 6.24722V9.71257H10.3237C5.06695 9.71257 1.70203 12.7427 1.70203 17.4972V18.87ZM17.3884 23.3566C17.3884 22.4526 16.8192 21.8834 15.8985 21.8834C15.4967 21.8834 15.0782 22.034 14.7601 22.2851L8.43195 27.5084C7.6786 28.1278 7.6786 29.1155 8.43195 29.7516L14.7601 35.0084C15.0782 35.2762 15.4967 35.4269 15.8985 35.4269C16.8192 35.4269 17.3884 34.8577 17.3884 33.9537V30.4548H29.6764C34.9331 30.4548 38.2979 27.4079 38.2979 22.6702V21.2974C38.2979 20.2595 37.4777 19.4392 36.44 19.4392C35.4185 19.4392 34.5981 20.2595 34.5981 21.2974V22.4024C34.5981 25.0474 32.7734 26.822 30.028 26.822H17.3884V23.3566Z" fill="#8A8F96"/>
</svg>
