<svg width="40" height="40" viewBox="0 0 40 40" fill="none" xmlns="http://www.w3.org/2000/svg">
<path fill-rule="evenodd" clip-rule="evenodd" d="M11.9 6.24994C9 4.20494 5 6.27494 5 9.82494V30.1749C5 33.7224 9 35.7949 11.9 33.7499L26.3125 23.5749C26.8851 23.171 27.3523 22.6354 27.6748 22.0133C27.9973 21.3912 28.1656 20.7007 28.1656 19.9999C28.1656 19.2992 27.9973 18.6087 27.6748 17.9866C27.3523 17.3644 26.8851 16.8289 26.3125 16.4249L11.9 6.24994ZM8.75 9.82494C8.75017 9.71052 8.78174 9.59835 8.84127 9.50064C8.90081 9.40293 8.98602 9.32344 9.08763 9.27083C9.18924 9.21822 9.30333 9.19452 9.41749 9.20229C9.53164 9.21007 9.64147 9.24904 9.735 9.31494L24.15 19.4899C24.2315 19.5477 24.298 19.6241 24.3439 19.7129C24.3898 19.8016 24.4137 19.9 24.4137 19.9999C24.4137 20.0998 24.3898 20.1983 24.3439 20.287C24.298 20.3758 24.2315 20.4522 24.15 20.5099L9.735 30.6849C9.64147 30.7508 9.53164 30.7898 9.41749 30.7976C9.30333 30.8054 9.18924 30.7817 9.08763 30.7291C8.98602 30.6764 8.90081 30.597 8.84127 30.4992C8.78174 30.4015 8.75017 30.2894 8.75 30.1749V9.82494Z" fill="#8A8F96"/>
<path d="M35 7.5C35 7.00272 34.8025 6.52581 34.4508 6.17417C34.0992 5.82254 33.6223 5.625 33.125 5.625C32.6277 5.625 32.1508 5.82254 31.7992 6.17417C31.4475 6.52581 31.25 7.00272 31.25 7.5V32.5C31.25 32.9973 31.4475 33.4742 31.7992 33.8258C32.1508 34.1775 32.6277 34.375 33.125 34.375C33.6223 34.375 34.0992 34.1775 34.4508 33.8258C34.8025 33.4742 35 32.9973 35 32.5V7.5Z" fill="#8A8F96"/>
</svg>
