<svg width="40" height="40" viewBox="0 0 40 40" fill="none" xmlns="http://www.w3.org/2000/svg">
<path fill-rule="evenodd" clip-rule="evenodd" d="M28.1 33.7501C31 35.7951 35 33.7251 35 30.1751V9.82506C35 6.27756 31 4.20506 28.1 6.25006L13.6875 16.4251C13.1149 16.829 12.6477 17.3646 12.3252 17.9867C12.0027 18.6088 11.8344 19.2993 11.8344 20.0001C11.8344 20.7008 12.0027 21.3913 12.3252 22.0134C12.6477 22.6356 13.1149 23.1711 13.6875 23.5751L28.1 33.7501ZM31.25 30.1751C31.2498 30.2895 31.2183 30.4017 31.1587 30.4994C31.0992 30.5971 31.014 30.6766 30.9124 30.7292C30.8108 30.7818 30.6967 30.8055 30.5825 30.7977C30.4684 30.7899 30.3585 30.751 30.265 30.6851L15.85 20.5101C15.7685 20.4523 15.702 20.3759 15.6561 20.2871C15.6102 20.1984 15.5863 20.1 15.5863 20.0001C15.5863 19.9002 15.6102 19.8017 15.6561 19.713C15.702 19.6242 15.7685 19.5478 15.85 19.4901L30.265 9.31506C30.3585 9.24915 30.4684 9.21019 30.5825 9.20241C30.6967 9.19463 30.8108 9.21834 30.9124 9.27094C31.014 9.32355 31.0992 9.40304 31.1587 9.50075C31.2183 9.59846 31.2498 9.71064 31.25 9.82506L31.25 30.1751Z" fill="#8A8F96"/>
<path d="M5 32.5C5 32.9973 5.19755 33.4742 5.54918 33.8258C5.90081 34.1775 6.37772 34.375 6.875 34.375C7.37228 34.375 7.84919 34.1775 8.20082 33.8258C8.55245 33.4742 8.75 32.9973 8.75 32.5L8.75 7.5C8.75 7.00272 8.55245 6.52581 8.20082 6.17418C7.84919 5.82254 7.37228 5.625 6.875 5.625C6.37772 5.625 5.90081 5.82254 5.54918 6.17418C5.19755 6.52581 5 7.00272 5 7.5L5 32.5Z" fill="#8A8F96"/>
</svg>
