<svg xmlns="http://www.w3.org/2000/svg" width="40" height="40" fill="none"><path stroke="#5F5D64" stroke-linecap="round" stroke-linejoin="round" stroke-width="1.5" d="m32.033 15.367-2.216 1.316-8.8 5.217c-.667.367-1.5.367-2.15 0l-8.8-5.217-2.217-1.316c-1.483-.867-1.483-3.1 0-3.967l11.033-6.55a2.239 2.239 0 0 1 2.15 0l11.034 6.55c1.45.867 1.45 3.117-.034 3.967Z"/><path stroke="#5F5D64" stroke-linecap="round" stroke-linejoin="round" stroke-width="1.5" d="M33.05 19.317c.283.966-.05 2.1-1.017 2.666L21 28.533a2.24 2.24 0 0 1-2.15 0l-11.033-6.55c-.9-.533-1.25-1.566-1.05-2.5"/><path stroke="#5F5D64" stroke-linecap="round" stroke-linejoin="round" stroke-width="1.5" d="M33.083 26.033c.234.95-.116 2.017-1.033 2.567l-11.033 6.55c-.667.367-1.5.367-2.15 0L7.833 28.6c-.85-.5-1.216-1.45-1.083-2.333"/></svg>